<svg xmlns="http://www.w3.org/2000/svg" version="1.1" xmlns:xlink="http://www.w3.org/1999/xlink" xmlns:svgjs="http://svgjs.dev/svgjs" width="1500" height="1500" viewBox="0 0 1500 1500"><rect width="1500" height="1500" fill="#050303"></rect><g transform="matrix(0.6666666666666666,0,0,0.6666666666666666,249.39393939393938,435.99032258064517)"><svg viewBox="0 0 396 248" data-background-color="#050303" preserveAspectRatio="xMidYMid meet" height="939" width="1500" xmlns="http://www.w3.org/2000/svg" xmlns:xlink="http://www.w3.org/1999/xlink"><g id="tight-bounds" transform="matrix(1,0,0,1,0.2400000000000091,0.4000000000000057)"><svg viewBox="0 0 395.52 247.2" height="247.2" width="395.52"><g><svg></svg></g><g><svg viewBox="0 0 395.52 247.2" height="247.2" width="395.52"><g transform="matrix(1,0,0,1,85.93875428027573,47.215199999999996)"><svg viewBox="0 0 223.64249143944852 152.7696" height="152.7696" width="223.64249143944852"><g><svg viewBox="0 0 244.43135999999998 166.970421650692" height="152.7696" width="223.64249143944852"><g><svg viewBox="0 0 244.43135999999998 166.970421650692" height="166.970421650692" width="244.43135999999998"><g id="textblocktransform"><svg viewBox="0 0 244.43135999999998 166.970421650692" height="166.970421650692" width="244.43135999999998" id="textblock"><g><svg viewBox="0 0 244.43135999999998 141.62118855152391" height="141.62118855152391" width="244.43135999999998"><g transform="matrix(1,0,0,1,0,0)"><svg width="244.43135999999998" viewBox="0.09999999999999998 -33.00000000000001 174.39999999999998 96.15" height="141.62118855152391" data-palette-color="#e36607"><svg></svg><svg></svg><g class="wordmark-text-0" data-fill-palette-color="primary" id="text-0"><path d="M34.25-33v0l3.55 3.05c-1.5 2.833-2.843 5.483-4.03 7.95-1.18 2.467-2.293 4.873-3.34 7.22-1.053 2.353-2.08 4.77-3.08 7.25-1 2.487-2.05 5.147-3.15 7.98v0h-2.7l0.45-5.3c2.267-4.1 4.377-8.477 6.33-13.13 1.947-4.647 3.937-9.653 5.97-15.02zM8.45-26.25l1.75-3.2c-0.167 1.667-0.3 3.583-0.4 5.75-0.1 2.167-0.167 4.45-0.2 6.85-0.033 2.4-0.04 4.79-0.02 7.17 0.013 2.387 0.053 4.63 0.12 6.73v0l5.35 1.05-0.7 1.9c-1.233-0.067-2.35-0.11-3.35-0.13-1-0.013-2.15-0.02-3.45-0.02v0c-1.567 0-2.873 0.007-3.92 0.02-1.053 0.02-2.013 0.063-2.88 0.13v0l-0.65-1.9 5-1.05c0.267-2.867 0.493-5.843 0.68-8.93 0.18-3.08 0.313-6.137 0.4-9.17 0.08-3.033 0.12-5.867 0.12-8.5v0l-4.95-1.4 0.8-2.05c1.067 0.033 2.06 0.067 2.98 0.1 0.913 0.033 1.937 0.05 3.07 0.05v0c1 0 1.983-0.017 2.95-0.05 0.967-0.033 1.833-0.067 2.6-0.1v0c1.1 2.467 2.133 4.767 3.1 6.9 0.967 2.133 1.933 4.2 2.9 6.2 0.967 2 1.983 4.007 3.05 6.02 1.067 2.02 2.267 4.163 3.6 6.43v0l-2.2 7.9h-2.7c-1.233-2.7-2.323-5.043-3.27-7.03-0.953-1.98-1.82-3.763-2.6-5.35-0.787-1.58-1.547-3.087-2.28-4.52-0.733-1.433-1.49-2.933-2.27-4.5-0.787-1.567-1.663-3.333-2.63-5.3zM45.65-33v0l0.8 2.05-4.65 1.4c0.1 2.267 0.183 4.3 0.25 6.1 0.067 1.8 0.133 3.473 0.2 5.02 0.067 1.553 0.133 3.097 0.2 4.63 0.067 1.533 0.143 3.173 0.23 4.92 0.08 1.753 0.187 3.73 0.32 5.93v0l4.65 1.05-0.8 1.9c-0.867-0.067-1.85-0.11-2.95-0.13-1.1-0.013-2.633-0.02-4.6-0.02v0c-1.8 0-3.273 0.017-4.42 0.05-1.153 0.033-2.23 0.067-3.23 0.1v0l-0.7-1.9 4.65-1.05c-0.067-3.6-0.157-6.877-0.27-9.83-0.12-2.947-0.247-5.83-0.38-8.65-0.133-2.813-0.317-5.803-0.55-8.97v0l-0.15-2.6c0.733 0.033 1.55 0.067 2.45 0.1 0.9 0.033 1.817 0.05 2.75 0.05v0c1.067 0 2.15-0.017 3.25-0.05 1.1-0.033 2.083-0.067 2.95-0.1zM61.1-21.7v0c2.467 0 4.527 0.517 6.18 1.55 1.647 1.033 2.877 2.383 3.69 4.05 0.82 1.667 1.23 3.467 1.23 5.4v0c0 1.967-0.417 3.807-1.25 5.52-0.833 1.72-2.083 3.097-3.75 4.13-1.667 1.033-3.75 1.55-6.25 1.55v0c-2.5 0-4.6-0.523-6.3-1.57-1.7-1.053-2.983-2.447-3.85-4.18-0.867-1.733-1.3-3.583-1.3-5.55v0c0-1.933 0.423-3.727 1.27-5.38 0.853-1.647 2.14-2.98 3.86-4 1.713-1.013 3.87-1.52 6.47-1.52zM56.5-11.85v0c0 1.667 0.193 3.25 0.58 4.75 0.38 1.5 0.953 2.717 1.72 3.65 0.767 0.933 1.683 1.4 2.75 1.4v0c1.267 0 2.21-0.693 2.83-2.08 0.613-1.38 0.92-3.103 0.92-5.17v0c0-1.667-0.193-3.243-0.58-4.73-0.38-1.48-0.947-2.697-1.7-3.65-0.747-0.947-1.67-1.42-2.77-1.42v0c-1.267 0-2.21 0.69-2.83 2.07-0.613 1.387-0.92 3.113-0.92 5.18zM74.75-1.3v0c0.267-1.267 0.49-2.327 0.67-3.18 0.187-0.847 0.347-1.77 0.48-2.77v0h2.5l0.8 3.9c0.433 0.367 0.95 0.65 1.55 0.85 0.6 0.2 1.2 0.3 1.8 0.3v0c0.833 0 1.577-0.2 2.23-0.6 0.647-0.4 0.97-1.017 0.97-1.85v0c0-0.7-0.257-1.277-0.77-1.73-0.52-0.447-1.18-0.847-1.98-1.2-0.8-0.347-1.65-0.697-2.55-1.05-0.9-0.347-1.75-0.787-2.55-1.32-0.8-0.533-1.46-1.2-1.98-2-0.513-0.8-0.77-1.817-0.77-3.05v0c0-1.7 0.417-3.043 1.25-4.03 0.833-0.98 1.923-1.687 3.27-2.12 1.353-0.433 2.78-0.65 4.28-0.65v0c1.167 0 2.383 0.133 3.65 0.4 1.267 0.267 2.417 0.65 3.45 1.15v0c-0.267 1.167-0.507 2.2-0.72 3.1-0.22 0.9-0.413 1.783-0.58 2.65v0l-2.6-0.05-0.65-3.4c-0.6-0.8-1.583-1.2-2.95-1.2v0c-0.733 0-1.407 0.167-2.02 0.5-0.62 0.333-0.93 0.883-0.93 1.65v0c0 0.733 0.267 1.323 0.8 1.77 0.533 0.453 1.227 0.847 2.08 1.18 0.847 0.333 1.753 0.69 2.72 1.07 0.967 0.387 1.877 0.863 2.73 1.43 0.847 0.567 1.537 1.29 2.07 2.17 0.533 0.887 0.8 2.013 0.8 3.38v0c0 1.6-0.433 2.873-1.3 3.82-0.867 0.953-2.017 1.637-3.45 2.05-1.433 0.42-2.983 0.63-4.65 0.63v0c-1.267 0-2.55-0.133-3.85-0.4-1.3-0.267-2.567-0.733-3.8-1.4zM104.45-21.85v0c1.667 0 3.21 0.367 4.63 1.1 1.413 0.733 2.547 1.84 3.4 3.32 0.847 1.487 1.27 3.347 1.27 5.58v0c-0.733 0.133-1.7 0.25-2.9 0.35-1.2 0.1-2.517 0.173-3.95 0.22-1.433 0.053-2.867 0.08-4.3 0.08v0c-1.067 0-1.983-0.017-2.75-0.05-0.767-0.033-1.283-0.067-1.55-0.1v0-2.4c0.367 0 0.927 0 1.68 0 0.747 0 1.587-0.017 2.52-0.05 0.933-0.033 1.843-0.083 2.73-0.15 0.88-0.067 1.62-0.15 2.22-0.25v0c-0.033-0.7-0.223-1.407-0.57-2.12-0.353-0.72-0.88-1.33-1.58-1.83-0.7-0.5-1.6-0.75-2.7-0.75v0c-0.667 0.633-1.2 1.507-1.6 2.62-0.4 1.12-0.6 2.413-0.6 3.88v0c0 3 0.627 5.207 1.88 6.62 1.247 1.42 2.787 2.13 4.62 2.13v0c1.867 0 3.833-0.667 5.9-2v0l1.1 2.3c-1.433 1.3-2.967 2.233-4.6 2.8-1.633 0.567-3.25 0.85-4.85 0.85v0c-1.867 0-3.607-0.41-5.22-1.23-1.62-0.813-2.92-2.037-3.9-3.67-0.987-1.633-1.48-3.667-1.48-6.1v0c0-2.467 0.51-4.527 1.53-6.18 1.013-1.647 2.33-2.887 3.95-3.72 1.613-0.833 3.32-1.25 5.12-1.25zM116.1-1.3v0c0.267-1.267 0.493-2.327 0.68-3.18 0.18-0.847 0.337-1.77 0.47-2.77v0h2.5l0.8 3.9c0.433 0.367 0.95 0.65 1.55 0.85 0.6 0.2 1.2 0.3 1.8 0.3v0c0.833 0 1.577-0.2 2.23-0.6 0.647-0.4 0.97-1.017 0.97-1.85v0c0-0.7-0.257-1.277-0.77-1.73-0.52-0.447-1.18-0.847-1.98-1.2-0.8-0.347-1.65-0.697-2.55-1.05-0.9-0.347-1.75-0.787-2.55-1.32-0.8-0.533-1.457-1.2-1.97-2-0.52-0.8-0.78-1.817-0.78-3.05v0c0-1.7 0.417-3.043 1.25-4.03 0.833-0.98 1.927-1.687 3.28-2.12 1.347-0.433 2.77-0.65 4.27-0.65v0c1.167 0 2.383 0.133 3.65 0.4 1.267 0.267 2.417 0.65 3.45 1.15v0c-0.267 1.167-0.507 2.2-0.72 3.1-0.22 0.9-0.413 1.783-0.58 2.65v0l-2.6-0.05-0.65-3.4c-0.6-0.8-1.583-1.2-2.95-1.2v0c-0.733 0-1.407 0.167-2.02 0.5-0.62 0.333-0.93 0.883-0.93 1.65v0c0 0.733 0.267 1.323 0.8 1.77 0.533 0.453 1.227 0.847 2.08 1.18 0.847 0.333 1.753 0.69 2.72 1.07 0.967 0.387 1.877 0.863 2.73 1.43 0.847 0.567 1.537 1.29 2.07 2.17 0.533 0.887 0.8 2.013 0.8 3.38v0c0 1.6-0.433 2.873-1.3 3.82-0.867 0.953-2.017 1.637-3.45 2.05-1.433 0.42-2.983 0.63-4.65 0.63v0c-1.267 0-2.55-0.133-3.85-0.4-1.3-0.267-2.567-0.733-3.8-1.4z" fill="#e36607" fill-rule="nonzero" stroke="none" stroke-width="1" stroke-linecap="butt" stroke-linejoin="miter" stroke-miterlimit="10" stroke-dasharray="" stroke-dashoffset="0" font-family="none" font-weight="none" font-size="none" text-anchor="none" style="mix-blend-mode: normal" data-fill-palette-color="primary" opacity="1"></path><path d="M24.05 45.25v0c0.067-0.967 0.117-1.827 0.15-2.58 0.033-0.747 0.05-1.487 0.05-2.22v0c0-0.733-0.017-1.45-0.05-2.15-0.033-0.7-0.1-1.4-0.2-2.1v0l-4.45-1.35 0.55-1.85c1.133 0.067 2.367 0.117 3.7 0.15 1.333 0.033 2.733 0.05 4.2 0.05v0c1.267 0 2.493-0.017 3.68-0.05 1.18-0.033 2.37-0.083 3.57-0.15v0l0.65 1.85-4.4 1.35c-0.033 0.8-0.067 1.607-0.1 2.42-0.033 0.82-0.033 1.663 0 2.53v0c0 1 0.043 2.04 0.13 3.12 0.08 1.087 0.137 2.263 0.17 3.53v0c-1.933 0.6-3.883 1.157-5.85 1.67-1.967 0.52-4.3 0.78-7 0.78v0c-3 0-5.557-0.473-7.67-1.42-2.12-0.953-3.83-2.223-5.13-3.81-1.3-1.58-2.257-3.363-2.87-5.35-0.62-1.98-0.93-4.02-0.93-6.12v0c0-2.2 0.333-4.327 1-6.38 0.667-2.047 1.683-3.887 3.05-5.52 1.367-1.633 3.127-2.927 5.28-3.88 2.147-0.947 4.687-1.42 7.62-1.42v0c2.1 0 4.127 0.177 6.08 0.53 1.947 0.347 3.92 0.987 5.92 1.92v0c-0.333 1.533-0.65 3.05-0.95 4.55-0.3 1.5-0.567 3.033-0.8 4.6v0h-3.35l-1-6.6c-1.6-0.667-3.1-1.133-4.5-1.4-1.4-0.267-3.067-0.4-5-0.4v0c-1.833 1.333-3.183 3.117-4.05 5.35-0.867 2.233-1.3 4.817-1.3 7.75v0c0 1.8 0.177 3.567 0.53 5.3 0.347 1.733 0.88 3.3 1.6 4.7 0.713 1.4 1.63 2.517 2.75 3.35 1.113 0.833 2.437 1.25 3.97 1.25v0c1 0 1.883-0.177 2.65-0.53 0.767-0.347 1.533-0.837 2.3-1.47zM48.4 28.15v0c-0.033 1.933-0.077 3.783-0.13 5.55-0.047 1.767-0.07 3.367-0.07 4.8v0c0 1.233 0.023 2.65 0.07 4.25 0.053 1.6 0.097 3.017 0.13 4.25v0l4 1.05-0.85 1.85c-0.867-0.067-1.743-0.11-2.63-0.13-0.88-0.013-2.203-0.02-3.97-0.02v0c-1.633 0-2.907 0.017-3.82 0.05-0.92 0.033-1.897 0.067-2.93 0.1v0l-0.8-1.85 4.25-1.05c0.067-1.667 0.107-3.117 0.12-4.35 0.02-1.233 0.013-2.583-0.02-4.05v0c0-0.767-0.007-1.45-0.02-2.05-0.02-0.6-0.047-1.277-0.08-2.03-0.033-0.747-0.1-1.703-0.2-2.87v0l-3.55-0.65-0.75-1.9c0.767-0.033 1.76-0.083 2.98-0.15 1.213-0.067 2.537-0.167 3.97-0.3 1.433-0.133 2.867-0.3 4.3-0.5zM44.65 24.45v0c-1.067 0-1.983-0.4-2.75-1.2-0.767-0.8-1.15-1.783-1.15-2.95v0c0-1.1 0.383-2.05 1.15-2.85 0.767-0.8 1.683-1.2 2.75-1.2v0c1.067 0 1.983 0.4 2.75 1.2 0.767 0.8 1.15 1.75 1.15 2.85v0c0 1.167-0.383 2.15-1.15 2.95-0.767 0.8-1.683 1.2-2.75 1.2zM62.15 22.3v0c-0.067 1.167-0.117 2.523-0.15 4.07-0.033 1.553-0.06 3.153-0.08 4.8-0.013 1.653-0.013 3.23 0 4.73 0.02 1.5 0.04 2.8 0.06 3.9 0.013 1.1 0.037 1.867 0.07 2.3v0c0.067 1.233 0.283 2.1 0.65 2.6 0.367 0.5 0.95 0.75 1.75 0.75v0c0.567 0 1.167-0.1 1.8-0.3 0.633-0.2 1.467-0.617 2.5-1.25v0l1 2c-0.833 0.7-1.723 1.4-2.67 2.1-0.953 0.7-1.987 1.273-3.1 1.72-1.12 0.453-2.363 0.68-3.73 0.68v0c-0.767 0-1.517-0.157-2.25-0.47-0.733-0.32-1.323-0.873-1.77-1.66-0.453-0.78-0.68-1.837-0.68-3.17v0c0 0.033 0.007-0.267 0.02-0.9 0.02-0.633 0.04-1.473 0.06-2.52 0.013-1.053 0.037-2.163 0.07-3.33 0.033-1.167 0.057-2.267 0.07-3.3 0.02-1.033 0.037-1.877 0.05-2.53 0.02-0.647 0.03-0.937 0.03-0.87v0c-0.033-0.367-0.24-0.683-0.62-0.95-0.387-0.267-0.83-0.5-1.33-0.7-0.5-0.2-0.95-0.383-1.35-0.55-0.4-0.167-0.617-0.35-0.65-0.55v0c0.8-0.133 1.483-0.267 2.05-0.4 0.567-0.133 1.183-0.283 1.85-0.45v0c0.733-0.967 1.39-1.877 1.97-2.73 0.587-0.847 1.263-1.853 2.03-3.02v0c0.3 0 0.683 0 1.15 0 0.467 0 0.867 0 1.2 0zM51.9 28.9l17.15-0.05v3.65l-17.15-1zM82.3 28.2v0c2.467 0 4.527 0.517 6.18 1.55 1.647 1.033 2.88 2.383 3.7 4.05 0.813 1.667 1.22 3.467 1.22 5.4v0c0 1.967-0.417 3.807-1.25 5.52-0.833 1.72-2.083 3.097-3.75 4.13-1.667 1.033-3.75 1.55-6.25 1.55v0c-2.5 0-4.6-0.523-6.3-1.57-1.7-1.053-2.983-2.447-3.85-4.18-0.867-1.733-1.3-3.583-1.3-5.55v0c0-1.933 0.427-3.727 1.28-5.38 0.847-1.647 2.13-2.98 3.85-4 1.713-1.013 3.87-1.52 6.47-1.52zM77.7 38.05v0c0 1.667 0.193 3.25 0.58 4.75 0.38 1.5 0.953 2.717 1.72 3.65 0.767 0.933 1.683 1.4 2.75 1.4v0c1.267 0 2.21-0.693 2.83-2.08 0.613-1.38 0.92-3.103 0.92-5.17v0c0-1.667-0.19-3.243-0.57-4.73-0.387-1.48-0.953-2.697-1.7-3.65-0.753-0.947-1.68-1.42-2.78-1.42v0c-1.267 0-2.207 0.69-2.82 2.07-0.62 1.387-0.93 3.113-0.93 5.18zM114.85 28.15v0c1.9 0 3.46 0.717 4.68 2.15 1.213 1.433 1.887 3.283 2.02 5.55v0c0.033 0.6 0.033 1.54 0 2.82-0.033 1.287-0.057 2.68-0.07 4.18-0.02 1.5-0.03 2.883-0.03 4.15v0l3.75 1.05-0.8 1.85c-0.867-0.067-1.85-0.11-2.95-0.13-1.1-0.013-2.183-0.02-3.25-0.02v0c-1.3 0-2.467 0.017-3.5 0.05-1.033 0.033-1.983 0.067-2.85 0.1v0l-0.65-1.85 3.65-1.05c0.033-1.133 0.067-2.093 0.1-2.88 0.033-0.78 0.06-1.563 0.08-2.35 0.013-0.78 0.003-1.703-0.03-2.77v0c-0.033-2.033-0.4-3.517-1.1-4.45-0.7-0.933-1.733-1.55-3.1-1.85v0c-1.467 0.967-2.533 2.15-3.2 3.55-0.667 1.4-0.983 2.733-0.95 4v0l-1.85-2.2c0.233-1.9 0.81-3.6 1.73-5.1 0.913-1.5 2.087-2.677 3.52-3.53 1.433-0.847 3.033-1.27 4.8-1.27zM106.7 27.9v0c0 1.1 0 1.99 0 2.67 0 0.687-0.007 1.37-0.02 2.05-0.02 0.687-0.063 1.597-0.13 2.73v0l0.2 11.65 3.65 1.05-0.65 1.85c-1.133-0.067-2.2-0.11-3.2-0.13-1-0.013-2.1-0.02-3.3-0.02v0c-1.3 0-2.423 0.017-3.37 0.05-0.953 0.033-1.913 0.067-2.88 0.1v0l-0.8-1.85 3.75-1.05c0-1.067 0.043-2.327 0.13-3.78 0.08-1.447 0.12-2.82 0.12-4.12v0c0-0.967-0.007-1.777-0.02-2.43-0.02-0.647-0.063-1.33-0.13-2.05-0.067-0.713-0.167-1.653-0.3-2.82v0l-3.9-0.95-0.6-1.9c1.967-0.1 3.827-0.243 5.58-0.43 1.747-0.18 3.703-0.387 5.87-0.62zM132.8 40.75v0l2.4 0.6c-0.767 1.333-1.15 2.333-1.15 3v0c0 0.9 0.483 1.45 1.45 1.65 0.967 0.2 2.117 0.333 3.45 0.4v0c1.033 0.067 2.1 0.173 3.2 0.32 1.1 0.153 2.127 0.457 3.08 0.91 0.947 0.447 1.713 1.143 2.3 2.09 0.58 0.953 0.87 2.263 0.87 3.93v0c0 1.633-0.44 3.177-1.32 4.63-0.887 1.447-2.247 2.62-4.08 3.52-1.833 0.9-4.15 1.35-6.95 1.35v0c-2.133 0-3.917-0.317-5.35-0.95-1.433-0.633-2.517-1.467-3.25-2.5-0.733-1.033-1.1-2.133-1.1-3.3v0c0-1.467 0.56-2.89 1.68-4.27 1.113-1.387 2.803-2.463 5.07-3.23v0l0.95 0.55c-0.667 0.8-1.157 1.6-1.47 2.4-0.32 0.8-0.48 1.583-0.48 2.35v0c0 1.5 0.61 2.767 1.83 3.8 1.213 1.033 2.903 1.55 5.07 1.55v0c1.4 0 2.65-0.323 3.75-0.97 1.1-0.653 1.65-1.713 1.65-3.18v0c0-1.067-0.623-1.873-1.87-2.42-1.253-0.553-3.447-0.83-6.58-0.83v0c-2.167 0-3.95-0.417-5.35-1.25-1.4-0.833-2.1-2.217-2.1-4.15v0c1.033-1.333 1.85-2.433 2.45-3.3 0.6-0.867 1.217-1.767 1.85-2.7zM135.45 30.45v0c-0.667 0.467-1.123 1.183-1.37 2.15-0.253 0.967-0.38 1.85-0.38 2.65v0c0 0.867 0.2 1.767 0.6 2.7 0.4 0.933 0.95 1.717 1.65 2.35 0.7 0.633 1.517 0.95 2.45 0.95v0c0.567-0.267 1.027-0.85 1.38-1.75 0.347-0.9 0.52-1.917 0.52-3.05v0c0-0.867-0.233-1.76-0.7-2.68-0.467-0.913-1.067-1.697-1.8-2.35-0.733-0.647-1.517-0.97-2.35-0.97zM136.8 28.35v0c2.3 0 4.16 0.357 5.58 1.07 1.413 0.72 2.453 1.653 3.12 2.8 0.667 1.153 1 2.38 1 3.68v0c0 1.4-0.367 2.69-1.1 3.87-0.733 1.187-1.833 2.137-3.3 2.85-1.467 0.72-3.3 1.08-5.5 1.08v0c-1.933 0-3.59-0.343-4.97-1.03-1.387-0.68-2.447-1.587-3.18-2.72-0.733-1.133-1.1-2.383-1.1-3.75v0c0-1.4 0.36-2.69 1.08-3.87 0.713-1.187 1.77-2.147 3.17-2.88 1.4-0.733 3.133-1.1 5.2-1.1zM151.45 28.75v0c0 0.833-0.017 1.74-0.05 2.72-0.033 0.987-0.05 1.713-0.05 2.18v0c-1.633-0.7-3.057-1.233-4.27-1.6-1.22-0.367-2.413-0.617-3.58-0.75v0l-2.35-1.9c1.067-0.133 2.3-0.25 3.7-0.35 1.4-0.1 2.71-0.177 3.93-0.23 1.213-0.047 2.103-0.07 2.67-0.07zM164.1 28.1v0c1.767 0 3.3 0.54 4.6 1.62 1.3 1.087 1.95 2.73 1.95 4.93v0c0 1.433-0.023 2.633-0.07 3.6-0.053 0.967-0.103 1.823-0.15 2.57-0.053 0.753-0.08 1.53-0.08 2.33v0c0 0.933 0.06 1.59 0.18 1.97 0.113 0.387 0.437 0.58 0.97 0.58v0c0.467 0 1.167-0.217 2.1-0.65v0l0.9 2.2c-1.2 0.833-2.35 1.523-3.45 2.07-1.1 0.553-2.267 0.83-3.5 0.83v0c-1.033 0-1.933-0.41-2.7-1.23-0.767-0.813-1.15-2.103-1.15-3.87v0c0-1.633 0.077-3.243 0.23-4.83 0.147-1.58 0.22-2.987 0.22-4.22v0c0-1.033-0.15-1.867-0.45-2.5-0.3-0.633-0.8-1.067-1.5-1.3v0c-1.533 0.067-3 0.35-4.4 0.85-1.4 0.5-2.833 1.133-4.3 1.9v0l-1.3-2.15c1.9-1.4 3.823-2.533 5.77-3.4 1.953-0.867 3.997-1.3 6.13-1.3zM167.65 35.95v0l-3 4.15c-0.733 0.167-1.383 0.333-1.95 0.5-0.567 0.167-1.083 0.3-1.55 0.4v0c-1.133 0.233-1.917 0.523-2.35 0.87-0.433 0.353-0.65 0.963-0.65 1.83v0c0 0.7 0.183 1.25 0.55 1.65 0.367 0.4 0.867 0.6 1.5 0.6v0c0.767 0 1.743-0.36 2.93-1.08 1.18-0.713 2.187-1.62 3.02-2.72v0l0.95 2.05c-0.533 0.667-1.29 1.483-2.27 2.45-0.987 0.967-2.163 1.823-3.53 2.57-1.367 0.753-2.867 1.13-4.5 1.13v0c-0.833 0-1.64-0.227-2.42-0.68-0.787-0.447-1.437-1.12-1.95-2.02-0.52-0.9-0.78-2.017-0.78-3.35v0c0-1.4 0.427-2.493 1.28-3.28 0.847-0.78 2.003-1.387 3.47-1.82 1.467-0.433 3.083-0.8 4.85-1.1v0c1.2-0.2 2.317-0.46 3.35-0.78 1.033-0.313 2.05-0.77 3.05-1.37z" fill="#ff6f00" fill-rule="nonzero" stroke="none" stroke-width="1" stroke-linecap="butt" stroke-linejoin="miter" stroke-miterlimit="10" stroke-dasharray="" stroke-dashoffset="0" font-family="none" font-weight="none" font-size="none" text-anchor="none" style="mix-blend-mode: normal" data-fill-palette-color="secondary" opacity="1"></path></g></svg></g></svg></g><g transform="matrix(1,0,0,1,0,157.33285947264775)"><svg viewBox="0 0 143.50565145599998 9.637562178044226" height="9.637562178044226" width="143.50565145599998"><g transform="matrix(1,0,0,1,0,0)"><svg width="143.50565145599998" viewBox="4.2 -38 732.51 49.2" height="9.637562178044226" data-palette-color="#ff6f00"><path d="M13.65 0L4.2 0 4.2-34.85 13.5-34.85Q19.65-34.85 22.45-32.41 25.25-29.98 25.25-25.55L25.25-25.55Q25.25-23.58 24.3-21.53 23.35-19.48 21.18-18.45L21.18-18.45Q24.15-17.73 25.58-15.55 27-13.38 27-10.05L27-10.05Q27-5.45 23.85-2.73 20.7 0 13.65 0L13.65 0ZM13.5-29.9L13.5-29.9 10.5-29.9 10.5-20.25 14.55-20.25Q16.25-20.25 17.24-21.06 18.23-21.88 18.64-23.06 19.05-24.25 19.05-25.35L19.05-25.35Q19.05-27.15 18.26-28.14 17.48-29.13 16.2-29.51 14.93-29.9 13.5-29.9ZM14.05-15.6L14.05-15.6 10.5-15.6 10.5-5.05 14.35-5.05Q15.85-5.05 17.24-5.45 18.63-5.85 19.51-7 20.4-8.15 20.4-10.4L20.4-10.4Q20.4-12.68 19.46-13.79 18.53-14.9 17.06-15.25 15.6-15.6 14.05-15.6ZM39.25 0.6L39.25 0.6Q35.47 0.6 33.69-1.81 31.9-4.23 31.9-8.45L31.9-8.45 31.9-24.9 38.15-24.9 38.15-9Q38.15-6.95 38.9-5.65 39.65-4.35 41.45-4.35L41.45-4.35Q43.22-4.35 44.41-5.65 45.6-6.95 45.6-9L45.6-9 45.6-24.9 51.85-24.9 51.85 0 46.2 0 46.07-3.23Q45.15-1.75 43.56-0.58 41.97 0.6 39.25 0.6ZM66.05-28.95L59.05-28.95 59.05-35.6 66.05-35.6 66.05-28.95ZM65.8 0L59.3 0 59.3-24.9 65.8-24.9 65.8 0ZM79.44 0L73.34 0 73.34-38 79.44-38 79.44 0ZM94.29 0.7L94.29 0.7Q91.27 0.7 89.04-0.93 86.82-2.55 85.6-5.5 84.39-8.45 84.39-12.4L84.39-12.4Q84.39-18.55 86.9-22.03 89.42-25.5 94.39-25.5L94.39-25.5Q96.94-25.5 98.7-24.24 100.47-22.98 100.99-20.6L100.99-20.6 100.54-24.25 100.54-38 106.44-38 106.44 0 100.99 0 100.99-5.1Q100.32-2.53 98.62-0.91 96.92 0.7 94.29 0.7ZM95.74-4.25L95.74-4.25Q97.54-4.25 98.97-6.14 100.39-8.03 100.39-12.3L100.39-12.3Q100.39-16.2 99.29-18.32 98.19-20.45 95.89-20.45L95.89-20.45Q94.72-20.45 93.55-19.73 92.39-19 91.62-17.24 90.84-15.48 90.84-12.4L90.84-12.4Q90.84-8.28 92.27-6.26 93.69-4.25 95.74-4.25ZM120.84-28.95L113.84-28.95 113.84-35.6 120.84-35.6 120.84-28.95ZM120.59 0L114.09 0 114.09-24.9 120.59-24.9 120.59 0ZM134.44 0L128.03 0 128.03-24.9 133.84-24.9 133.96-21.63Q134.94-23.13 136.69-24.31 138.44-25.5 141.28-25.5L141.28-25.5Q145.09-25.5 146.94-23.1 148.79-20.7 148.79-16.45L148.79-16.45 148.79 0 142.39 0 142.39-15.9Q142.39-17.98 141.51-19.26 140.64-20.55 138.84-20.55L138.84-20.55Q137.09-20.55 135.76-19.26 134.44-17.98 134.44-15.9L134.44-15.9 134.44 0ZM156.63 9L159.43 4.3Q160.33 4.85 161.62 5.3 162.91 5.75 164.63 5.75L164.63 5.75Q167.83 5.75 169.43 4.09 171.03 2.43 171.03-1.2L171.03-1.2 171.03-5.1Q170.68-3.83 169.93-2.58 169.18-1.33 167.87-0.51 166.56 0.3 164.53 0.3L164.53 0.3Q161.71 0.3 159.42-0.99 157.13-2.27 155.78-5.08 154.43-7.88 154.43-12.4L154.43-12.4Q154.43-17 155.77-19.89 157.11-22.78 159.37-24.14 161.63-25.5 164.38-25.5L164.38-25.5Q167.46-25.5 169.08-23.95 170.71-22.4 171.03-20.6L171.03-20.6 171.73-24.9 176.63-24.9 176.63-1.2Q176.63 4.53 173.75 7.86 170.86 11.2 165.23 11.2L165.23 11.2Q162.21 11.2 159.98 10.44 157.76 9.68 156.63 9L156.63 9ZM165.78-4.6L165.78-4.6Q167.96-4.6 169.2-6.66 170.43-8.72 170.43-12.5L170.43-12.5Q170.43-16.07 169.36-18.26 168.28-20.45 165.98-20.45L165.98-20.45Q164.71-20.45 163.55-19.69 162.38-18.93 161.63-17.18 160.88-15.43 160.88-12.45L160.88-12.45Q160.88-8.4 162.27-6.5 163.66-4.6 165.78-4.6ZM206.33 0L199.93 0 199.93-14.08 188.93-34.85 195.98-34.85 203.3-19.7 210.33-34.85 217.33-34.85 206.33-13.63 206.33 0ZM227.43 0.5L227.43 0.5Q221.93 0.5 218.93-2.95 215.93-6.4 215.93-12.5L215.93-12.5Q215.93-18.65 219.03-22.08 222.13-25.5 227.63-25.5L227.63-25.5Q233.15-25.5 236.04-21.96 238.93-18.43 238.93-12.5L238.93-12.5Q238.93-6.58 235.94-3.04 232.95 0.5 227.43 0.5ZM227.53-4.5L227.53-4.5Q232.28-4.5 232.28-12.5L232.28-12.5Q232.28-20.55 227.53-20.55L227.53-20.55Q225.18-20.55 223.88-18.69 222.58-16.82 222.58-12.5L222.58-12.5Q222.58-8.2 223.88-6.35 225.18-4.5 227.53-4.5ZM251.87 0.6L251.87 0.6Q248.1 0.6 246.31-1.81 244.52-4.23 244.52-8.45L244.52-8.45 244.52-24.9 250.77-24.9 250.77-9Q250.77-6.95 251.52-5.65 252.27-4.35 254.07-4.35L254.07-4.35Q255.85-4.35 257.04-5.65 258.22-6.95 258.22-9L258.22-9 258.22-24.9 264.47-24.9 264.47 0 258.82 0 258.7-3.23Q257.77-1.75 256.19-0.58 254.6 0.6 251.87 0.6ZM277.87 0L271.62 0 271.62-24.9 277.27-24.9 277.57-20.5Q277.97-21.48 278.81-22.58 279.65-23.68 281.13-24.44 282.62-25.2 284.97-25.2L284.97-25.2Q285.69-25.2 286.25-25.1 286.8-25 287.27-24.8L287.27-24.8 285.87-18.25Q285.07-19.05 283.42-19.05L283.42-19.05Q281.5-19.05 280.27-18.26 279.05-17.48 278.46-16.5 277.87-15.53 277.87-15L277.87-15 277.87 0ZM309.77 0L300.82 0 300.82-34.85 309.82-34.85Q317.39-34.85 321.5-30.61 325.62-26.38 325.62-17.85L325.62-17.85Q325.62-12.4 323.79-8.39 321.97-4.38 318.43-2.19 314.89 0 309.77 0L309.77 0ZM309.62-29.85L309.62-29.85 307.27-29.85 307.27-5.5 309.62-5.5Q312.37-5.5 314.19-6.54 316.02-7.58 317.1-9.31 318.19-11.05 318.65-13.24 319.12-15.43 319.12-17.7L319.12-17.7Q319.12-20.85 318.24-23.63 317.37-26.4 315.29-28.13 313.22-29.85 309.62-29.85ZM337.61-28.95L330.61-28.95 330.61-35.6 337.61-35.6 337.61-28.95ZM337.36 0L330.86 0 330.86-24.9 337.36-24.9 337.36 0ZM345.46 9L348.26 4.3Q349.16 4.85 350.45 5.3 351.74 5.75 353.46 5.75L353.46 5.75Q356.66 5.75 358.26 4.09 359.86 2.43 359.86-1.2L359.86-1.2 359.86-5.1Q359.51-3.83 358.76-2.58 358.01-1.33 356.7-0.51 355.39 0.3 353.36 0.3L353.36 0.3Q350.54 0.3 348.25-0.99 345.96-2.27 344.61-5.08 343.26-7.88 343.26-12.4L343.26-12.4Q343.26-17 344.6-19.89 345.94-22.78 348.2-24.14 350.46-25.5 353.21-25.5L353.21-25.5Q356.29-25.5 357.91-23.95 359.54-22.4 359.86-20.6L359.86-20.6 360.56-24.9 365.46-24.9 365.46-1.2Q365.46 4.53 362.57 7.86 359.69 11.2 354.06 11.2L354.06 11.2Q351.04 11.2 348.81 10.44 346.59 9.68 345.46 9L345.46 9ZM354.61-4.6L354.61-4.6Q356.79-4.6 358.02-6.66 359.26-8.72 359.26-12.5L359.26-12.5Q359.26-16.07 358.19-18.26 357.11-20.45 354.81-20.45L354.81-20.45Q353.54-20.45 352.37-19.69 351.21-18.93 350.46-17.18 349.71-15.43 349.71-12.45L349.71-12.45Q349.71-8.4 351.1-6.5 352.49-4.6 354.61-4.6ZM379.51-28.95L372.51-28.95 372.51-35.6 379.51-35.6 379.51-28.95ZM379.26 0L372.76 0 372.76-24.9 379.26-24.9 379.26 0ZM394.91 0.75L394.91 0.75Q390.68 0.75 389.19-1.45 387.71-3.65 387.71-8.1L387.71-8.1 387.71-19.65 384.46-19.65 384.46-24.9 387.96-24.9 388.31-30.15 393.76-32.5 393.76-24.9 399.91-24.9 399.91-19.65 393.76-19.65 393.76-8.25Q393.76-6.08 394.37-5.24 394.98-4.4 396.06-4.4L396.06-4.4Q397.16-4.4 398.38-4.98 399.61-5.55 400.31-6.15L400.31-6.15 401.51-1.1Q400.73-0.55 399.49-0.14 398.26 0.28 396.99 0.51 395.73 0.75 394.91 0.75ZM411.15 0.7L411.15 0.7Q408.85 0.7 407.34-0.33 405.83-1.35 405.09-3.05 404.35-4.75 404.35-6.8L404.35-6.8Q404.35-7.95 404.94-9.33 405.53-10.7 407.03-11.95 408.53-13.2 411.25-14 413.98-14.8 418.25-14.8L418.25-14.8 418.25-15.95Q418.25-17.8 417.37-19.03 416.48-20.25 413.8-20.25L413.8-20.25Q411.85-20.25 409.99-19.59 408.13-18.93 407.25-17.95L407.25-17.95 405.25-22.75Q406.75-23.78 409.27-24.64 411.78-25.5 414.85-25.5L414.85-25.5Q418.55-25.5 420.6-24.38 422.65-23.25 423.48-21.19 424.3-19.13 424.3-16.35L424.3-16.35 424.3 0 418.95 0 418.5-3.55Q415.9 0.7 411.15 0.7ZM413.8-4.1L413.8-4.1Q414.93-4.1 416.22-5.01 417.5-5.93 418.25-7.35L418.25-7.35 418.25-10.9Q418-10.95 417.72-10.95 417.43-10.95 417.05-10.95L417.05-10.95Q415.68-10.95 414.17-10.64 412.65-10.33 411.6-9.55 410.55-8.78 410.55-7.4L410.55-7.4Q410.55-5.6 411.35-4.85 412.15-4.1 413.8-4.1ZM437.2 0L431.1 0 431.1-38 437.2-38 437.2 0ZM461.1 0L454.7 0 454.7-34.85 472.9-34.85 472.9-29.35 461.1-29.35 461.1-20.2 471.4-20.2 471.4-14.6 461.1-14.6 461.1 0ZM484.54 0.6L484.54 0.6Q480.77 0.6 478.98-1.81 477.19-4.23 477.19-8.45L477.19-8.45 477.19-24.9 483.44-24.9 483.44-9Q483.44-6.95 484.19-5.65 484.94-4.35 486.74-4.35L486.74-4.35Q488.52-4.35 489.71-5.65 490.89-6.95 490.89-9L490.89-9 490.89-24.9 497.14-24.9 497.14 0 491.49 0 491.37-3.23Q490.44-1.75 488.86-0.58 487.27 0.6 484.54 0.6ZM512.74 0.75L512.74 0.75Q508.52 0.75 507.03-1.45 505.54-3.65 505.54-8.1L505.54-8.1 505.54-19.65 502.29-19.65 502.29-24.9 505.79-24.9 506.14-30.15 511.59-32.5 511.59-24.9 517.74-24.9 517.74-19.65 511.59-19.65 511.59-8.25Q511.59-6.08 512.2-5.24 512.82-4.4 513.89-4.4L513.89-4.4Q514.99-4.4 516.22-4.98 517.44-5.55 518.14-6.15L518.14-6.15 519.34-1.1Q518.57-0.55 517.33-0.14 516.09 0.28 514.83 0.51 513.57 0.75 512.74 0.75ZM531.14 0.6L531.14 0.6Q527.36 0.6 525.58-1.81 523.79-4.23 523.79-8.45L523.79-8.45 523.79-24.9 530.04-24.9 530.04-9Q530.04-6.95 530.79-5.65 531.54-4.35 533.34-4.35L533.34-4.35Q535.11-4.35 536.3-5.65 537.49-6.95 537.49-9L537.49-9 537.49-24.9 543.74-24.9 543.74 0 538.09 0 537.96-3.23Q537.04-1.75 535.45-0.58 533.86 0.6 531.14 0.6ZM557.13 0L550.88 0 550.88-24.9 556.53-24.9 556.83-20.5Q557.23-21.48 558.07-22.58 558.91-23.68 560.4-24.44 561.88-25.2 564.23-25.2L564.23-25.2Q564.96-25.2 565.51-25.1 566.06-25 566.53-24.8L566.53-24.8 565.13-18.25Q564.33-19.05 562.68-19.05L562.68-19.05Q560.76-19.05 559.53-18.26 558.31-17.48 557.72-16.5 557.13-15.53 557.13-15L557.13-15 557.13 0ZM579.83 0.65L579.83 0.65Q575.63 0.65 573.06-1.11 570.48-2.88 569.31-5.79 568.13-8.7 568.13-12.15L568.13-12.15Q568.13-15.78 569.47-18.81 570.81-21.85 573.39-23.68 575.98-25.5 579.73-25.5L579.73-25.5Q585.33-25.5 587.56-22.26 589.78-19.03 589.78-13.1L589.78-13.1Q589.78-12.58 589.76-11.78 589.73-10.98 589.68-10.4L589.68-10.4 574.68-10.4Q574.83-7.45 576.34-5.78 577.86-4.1 580.88-4.1L580.88-4.1Q582.43-4.1 584.21-4.79 585.98-5.48 586.83-6.45L586.83-6.45 588.83-1.7Q587.83-1.03 585.67-0.19 583.51 0.65 579.83 0.65ZM574.63-14.3L574.63-14.3 583.43-14.3Q583.43-16.93 582.97-18.31 582.51-19.7 581.71-20.23 580.91-20.75 579.88-20.75L579.88-20.75Q577.33-20.75 576.06-18.86 574.78-16.98 574.63-14.3ZM597.98 8.15L593.68 8.15Q593.95 7.48 594.15 5.75 594.35 4.03 594.47 1.85 594.58-0.33 594.58-2.35L594.58-2.35 594.58-7.45 600.23-7.45 600.23-3.55Q600.23-1.23 599.9 1.15 599.58 3.53 599.07 5.41 598.55 7.3 597.98 8.15L597.98 8.15ZM628.02 0L621.57 0 621.57-29.2 613.52-29.2 613.52-34.85 636.07-34.85 636.07-29.2 628.02-29.2 628.02 0ZM648.07 0.5L648.07 0.5Q642.57 0.5 639.57-2.95 636.57-6.4 636.57-12.5L636.57-12.5Q636.57-18.65 639.67-22.08 642.77-25.5 648.27-25.5L648.27-25.5Q653.8-25.5 656.68-21.96 659.57-18.43 659.57-12.5L659.57-12.5Q659.57-6.58 656.58-3.04 653.6 0.5 648.07 0.5ZM648.17-4.5L648.17-4.5Q652.92-4.5 652.92-12.5L652.92-12.5Q652.92-20.55 648.17-20.55L648.17-20.55Q645.82-20.55 644.52-18.69 643.22-16.82 643.22-12.5L643.22-12.5Q643.22-8.2 644.52-6.35 645.82-4.5 648.17-4.5ZM673.72 0.7L673.72 0.7Q670.69 0.7 668.47-0.93 666.24-2.55 665.03-5.5 663.82-8.45 663.82-12.4L663.82-12.4Q663.82-18.55 666.33-22.03 668.84-25.5 673.82-25.5L673.82-25.5Q676.37-25.5 678.13-24.24 679.89-22.98 680.42-20.6L680.42-20.6 679.97-24.25 679.97-38 685.87-38 685.87 0 680.42 0 680.42-5.1Q679.74-2.53 678.04-0.91 676.34 0.7 673.72 0.7ZM675.17-4.25L675.17-4.25Q676.97-4.25 678.39-6.14 679.82-8.03 679.82-12.3L679.82-12.3Q679.82-16.2 678.72-18.32 677.62-20.45 675.32-20.45L675.32-20.45Q674.14-20.45 672.98-19.73 671.82-19 671.04-17.24 670.27-15.48 670.27-12.4L670.27-12.4Q670.27-8.28 671.69-6.26 673.12-4.25 675.17-4.25ZM697.72 0.7L697.72 0.7Q695.42 0.7 693.9-0.33 692.39-1.35 691.65-3.05 690.92-4.75 690.92-6.8L690.92-6.8Q690.92-7.95 691.5-9.33 692.09-10.7 693.59-11.95 695.09-13.2 697.82-14 700.54-14.8 704.82-14.8L704.82-14.8 704.82-15.95Q704.82-17.8 703.93-19.03 703.04-20.25 700.37-20.25L700.37-20.25Q698.42-20.25 696.55-19.59 694.69-18.93 693.82-17.95L693.82-17.95 691.82-22.75Q693.32-23.78 695.83-24.64 698.34-25.5 701.42-25.5L701.42-25.5Q705.12-25.5 707.17-24.38 709.22-23.25 710.04-21.19 710.87-19.13 710.87-16.35L710.87-16.35 710.87 0 705.52 0 705.07-3.55Q702.47 0.7 697.72 0.7ZM700.37-4.1L700.37-4.1Q701.49-4.1 702.78-5.01 704.07-5.93 704.82-7.35L704.82-7.35 704.82-10.9Q704.57-10.95 704.28-10.95 703.99-10.95 703.62-10.95L703.62-10.95Q702.24-10.95 700.73-10.64 699.22-10.33 698.17-9.55 697.12-8.78 697.12-7.4L697.12-7.4Q697.12-5.6 697.92-4.85 698.72-4.1 700.37-4.1ZM724.01 9.45L717.86 9.45 721.91-1.7 712.56-24.9 719.51-24.9 723.21-13.8 724.81-8.05 726.41-13.8 730.16-24.9 736.71-24.9 724.01 9.45Z" opacity="1" transform="matrix(1,0,0,1,0,0)" fill="#ff6f00" class="slogan-text-1" data-fill-palette-color="secondary" id="text-1"></path></svg></g></svg></g></svg></g></svg></g></svg></g></svg></g><path d="M259.955 41.215L259.955 0 12.755 0 12.755 247.2 259.955 247.2 259.955 205.985 254.463 205.985 254.463 241.709 18.246 241.709 18.246 5.491 254.463 5.491 254.463 41.215Z" fill="#dedad7" stroke="transparent" data-fill-palette-color="tertiary"></path></svg></g><defs></defs></svg><rect width="395.52" height="247.2" fill="none" stroke="none" visibility="hidden"></rect></g></svg></g></svg>