<?xml version="1.0" standalone="no"?>
<!DOCTYPE svg PUBLIC "-//W3C//DTD SVG 20010904//EN"
 "http://www.w3.org/TR/2001/REC-SVG-20010904/DTD/svg10.dtd">
<svg version="1.0" xmlns="http://www.w3.org/2000/svg"
 width="1500.000000pt" height="1500.000000pt" viewBox="0 0 1500.000000 1500.000000"
 preserveAspectRatio="xMidYMid meet">
<metadata>
Created by potrace 1.14, written by Peter Selinger 2001-2017
</metadata>
<g transform="translate(0.000000,1500.000000) scale(0.100000,-0.100000)"
fill="#000000" stroke="none">
<path d="M2830 7500 l0 -3120 3120 0 3120 0 0 520 0 520 -70 0 -70 0 0 -450 0
-450 -2980 0 -2980 0 0 2980 0 2980 2980 0 2980 0 0 -450 0 -450 70 0 70 0 0
520 0 520 -3120 0 -3120 0 0 -3120z"/>
<path d="M4737 9330 c-3 -8 -8 -22 -11 -31 -6 -13 9 -20 75 -39 l82 -24 -7
-225 c-7 -225 -20 -461 -32 -577 l-6 -62 -74 -12 c-41 -7 -77 -16 -79 -21 -3
-4 -1 -17 3 -30 9 -22 10 -22 230 -23 l222 -1 9 27 c11 31 12 31 -85 48 l-71
13 -7 111 c-7 133 -6 326 3 456 l6 95 126 -250 c68 -137 153 -310 186 -382
l62 -133 44 0 45 0 87 217 c48 119 124 295 168 392 81 174 82 175 89 135 8
-45 29 -624 23 -634 -3 -4 -33 -13 -67 -20 -76 -15 -81 -20 -69 -52 l9 -25
248 2 c246 2 248 3 256 25 4 12 6 25 3 30 -3 4 -34 13 -71 20 -36 7 -67 18
-69 24 -4 12 -35 735 -35 808 l0 46 70 21 c70 21 76 28 61 66 -7 19 -18 20
-193 20 l-185 0 -106 -265 c-58 -146 -126 -310 -152 -365 -44 -94 -47 -99 -62
-80 -19 27 -227 450 -292 595 l-51 115 -189 0 c-162 1 -190 -2 -194 -15z"/>
<path d="M7318 8979 c-67 -10 -122 -36 -160 -76 -35 -37 -48 -73 -48 -133 0
-103 35 -144 187 -216 125 -59 153 -81 153 -122 0 -64 -85 -98 -165 -67 -46
17 -47 18 -63 100 -7 38 -10 40 -49 43 l-40 3 -18 -90 c-9 -49 -14 -94 -11
-100 4 -6 38 -20 77 -32 58 -17 89 -21 182 -18 98 4 119 8 169 32 80 39 102
74 107 164 3 64 0 78 -23 117 -30 52 -91 93 -201 136 -82 32 -135 74 -135 109
0 10 9 29 19 42 16 20 28 24 80 24 74 0 92 -15 106 -88 10 -52 10 -52 52 -55
l41 -3 21 91 c12 50 21 93 21 95 0 9 -138 44 -190 48 -30 3 -81 1 -112 -4z"/>
<path d="M7984 8980 c-189 -40 -301 -223 -264 -430 27 -152 118 -243 273 -271
110 -20 261 19 345 90 22 19 22 20 5 55 -9 20 -19 35 -22 33 -80 -45 -171 -65
-236 -53 -75 14 -155 120 -155 207 l0 27 138 6 c75 4 170 9 211 12 l74 6 -5
63 c-6 75 -45 153 -97 196 -63 51 -180 77 -267 59z m93 -110 c38 -23 60 -55
69 -97 7 -38 -7 -43 -128 -43 -98 0 -100 2 -76 71 29 87 71 109 135 69z"/>
<path d="M8657 8979 c-134 -20 -207 -93 -207 -208 0 -114 32 -147 231 -240 61
-28 89 -47 97 -66 17 -37 15 -50 -11 -80 -31 -37 -90 -43 -149 -17 -42 18 -46
23 -52 67 -11 71 -14 75 -56 75 l-39 0 -11 -57 c-7 -32 -15 -75 -20 -95 l-8
-37 57 -22 c77 -31 254 -38 335 -15 63 19 126 69 146 116 7 17 11 56 8 94 -7
109 -58 160 -226 226 -119 47 -156 98 -113 151 16 21 28 24 81 24 74 0 94 -18
105 -95 l7 -50 42 0 43 0 18 83 c10 45 20 87 22 94 6 15 -110 50 -187 56 -30
3 -81 1 -113 -4z"/>
<path d="M6516 8964 c-95 -30 -168 -94 -209 -183 -17 -37 -21 -66 -22 -151 0
-99 2 -109 33 -172 36 -73 87 -124 161 -160 69 -34 234 -38 312 -9 280 105
293 541 21 664 -62 28 -224 34 -296 11z m177 -94 c108 -95 129 -397 35 -497
-16 -17 -33 -23 -64 -23 -36 0 -49 6 -79 37 -98 101 -110 421 -18 493 38 30
86 26 126 -10z"/>
<path d="M5143 7735 c-174 -38 -304 -162 -369 -355 -27 -79 -27 -292 0 -370
62 -182 173 -291 342 -335 69 -18 260 -21 344 -5 30 6 96 22 147 36 l91 26 -5
188 -6 188 72 22 c66 19 72 24 67 43 -3 12 -6 25 -6 30 0 4 -112 7 -249 7
l-249 0 -6 -22 c-3 -13 -6 -26 -6 -30 0 -3 31 -15 69 -27 54 -16 70 -26 75
-43 9 -36 7 -234 -3 -261 -6 -15 -30 -35 -62 -51 -88 -44 -172 -31 -246 37
-88 81 -133 218 -133 406 0 181 36 293 122 387 33 36 47 44 75 44 58 0 175
-21 229 -41 l52 -20 12 -82 c19 -134 15 -127 74 -127 l52 0 28 146 c15 80 27
146 25 148 -2 2 -30 13 -62 25 -131 48 -344 64 -474 36z"/>
<path d="M6041 7724 c-58 -48 -60 -142 -5 -197 50 -51 125 -47 174 9 24 28 30
44 30 80 0 85 -45 134 -124 134 -33 0 -52 -7 -75 -26z"/>
<path d="M6548 7468 l-64 -93 -65 -16 -64 -16 0 -39 0 -39 60 -5 60 -5 0 -250
c0 -233 1 -252 20 -285 48 -81 159 -91 288 -26 40 20 89 51 111 69 l38 34 -16
31 -16 32 -40 -21 c-50 -26 -111 -35 -138 -20 -33 18 -42 73 -42 255 l0 169
115 -7 115 -7 0 60 0 61 -115 0 -115 0 0 105 0 105 -34 0 c-32 0 -39 -6 -98
-92z"/>
<path d="M8050 7369 c-36 -4 -113 -12 -173 -17 -59 -5 -110 -11 -112 -14 -3
-3 -1 -17 4 -31 8 -20 21 -28 66 -38 30 -7 60 -17 65 -24 14 -17 22 -273 13
-389 l-8 -100 -55 -14 c-30 -7 -56 -15 -58 -17 -1 -1 3 -14 9 -29 l12 -26 208
0 c179 0 208 2 213 16 12 32 5 42 -46 56 l-53 15 -3 144 c-3 143 -2 144 28
206 38 76 87 118 126 109 46 -12 90 -65 103 -124 12 -57 14 -220 3 -291 -7
-43 -8 -45 -59 -59 -52 -14 -59 -24 -47 -56 5 -14 33 -16 210 -16 191 0 204 1
214 19 17 32 12 37 -47 54 l-58 16 0 214 0 213 -30 59 c-20 40 -45 69 -73 90
-39 27 -52 30 -115 30 -87 0 -165 -34 -221 -95 l-36 -40 0 75 c0 41 -3 74 -7
74 -5 -1 -37 -5 -73 -10z"/>
<path d="M6209 7366 c-2 -3 -77 -10 -167 -17 -157 -12 -162 -13 -156 -33 9
-32 17 -37 75 -50 l54 -11 7 -85 c8 -112 8 -314 0 -370 l-7 -44 -60 -14 c-33
-8 -62 -16 -64 -18 -2 -2 1 -15 7 -29 l12 -25 219 0 219 0 10 28 c9 27 8 27
-52 42 l-61 16 -7 119 c-3 66 -4 204 0 308 4 161 3 187 -10 187 -8 0 -17 -2
-19 -4z"/>
<path d="M7247 7360 c-192 -35 -309 -207 -276 -409 20 -125 92 -222 205 -273
66 -30 222 -32 304 -4 76 27 159 110 190 191 31 82 32 206 1 287 -61 158 -233
243 -424 208z m140 -112 c60 -64 83 -140 83 -279 0 -113 -19 -178 -62 -214
-110 -93 -230 87 -215 324 5 94 28 163 60 186 12 8 40 15 62 15 33 0 47 -6 72
-32z"/>
<path d="M9868 7354 c-62 -15 -133 -48 -215 -100 l-53 -34 21 -34 20 -34 79
33 c43 19 106 39 139 46 53 10 64 9 85 -5 29 -19 49 -76 44 -126 l-3 -35 -113
-23 c-198 -40 -264 -77 -282 -158 -20 -88 18 -176 94 -213 46 -23 53 -24 114
-13 43 7 84 23 124 48 48 29 62 34 69 23 5 -8 9 -17 9 -22 0 -18 68 -47 111
-47 46 0 173 53 198 83 16 20 -8 79 -29 71 -40 -15 -67 -15 -80 1 -10 12 -12
51 -6 191 9 241 -7 293 -108 340 -59 27 -129 30 -218 8z m107 -470 c-6 -51 -7
-52 -57 -74 -58 -25 -90 -21 -114 15 -22 33 -11 90 19 107 12 6 51 19 87 28
64 16 65 16 68 -4 2 -11 1 -43 -3 -72z"/>
<path d="M8975 7342 c-71 -24 -120 -65 -150 -125 -31 -62 -33 -143 -6 -202 17
-38 74 -98 102 -107 10 -3 -2 -26 -38 -75 -47 -65 -51 -74 -43 -106 4 -19 14
-45 23 -57 15 -21 14 -24 -14 -47 -76 -64 -102 -172 -62 -251 26 -50 92 -98
160 -118 80 -23 246 -15 327 16 145 56 225 194 196 337 -24 113 -93 152 -303
172 -116 12 -142 20 -152 51 -11 33 3 40 84 40 141 0 241 49 289 142 32 62 33
148 3 207 l-22 42 28 -7 c15 -4 59 -18 96 -31 38 -14 70 -23 71 -21 2 2 6 36
9 76 l6 72 -47 0 c-26 -1 -93 -5 -148 -9 -77 -7 -115 -5 -155 5 -73 19 -193
17 -254 -4z m168 -90 c70 -66 91 -175 51 -258 -27 -56 -68 -59 -123 -9 -57 52
-79 122 -63 206 14 78 42 112 81 98 14 -6 39 -22 54 -37z m96 -674 c167 -31
139 -196 -36 -224 -125 -20 -253 66 -253 168 0 80 -1 79 124 72 61 -3 135 -10
165 -16z"/>
<path d="M4990 5705 c0 -69 3 -85 15 -85 12 0 15 16 15 85 0 69 -3 85 -15 85
-12 0 -15 -16 -15 -85z"/>
<path d="M5110 5760 c0 -22 -4 -28 -15 -23 -22 8 -55 -25 -55 -56 0 -40 15
-55 59 -57 l41 -2 0 84 c0 68 -3 84 -15 84 -10 0 -15 -10 -15 -30z m-2 -82
c-3 -36 -30 -46 -36 -15 -5 26 5 47 23 47 12 0 15 -8 13 -32z"/>
<path d="M6610 5704 c0 -64 3 -85 13 -82 8 3 13 32 15 86 2 68 0 82 -13 82
-12 0 -15 -15 -15 -86z"/>
<path d="M7740 5760 c0 -27 -3 -30 -24 -24 -18 4 -28 0 -40 -17 -21 -31 -20
-52 3 -80 17 -21 22 -22 40 -11 13 7 21 8 21 2 0 -5 5 -10 10 -10 6 0 10 35
10 85 0 50 -4 85 -10 85 -5 0 -10 -14 -10 -30z m-12 -86 c-4 -35 -32 -39 -36
-6 -4 27 17 57 30 44 5 -5 8 -22 6 -38z"/>
<path d="M4680 5700 c0 -87 4 -91 68 -74 25 7 40 48 24 67 -6 7 -9 23 -5 35 8
31 -14 52 -53 52 l-34 0 0 -80z m58 38 c-5 -32 -28 -35 -28 -4 0 17 5 26 16
26 10 0 14 -7 12 -22z m12 -67 c0 -10 -7 -22 -16 -25 -23 -9 -24 -8 -24 19 0
18 5 25 20 25 13 0 20 -7 20 -19z"/>
<path d="M4930 5764 c0 -9 5 -14 12 -12 18 6 21 28 4 28 -9 0 -16 -7 -16 -16z"/>
<path d="M5172 5768 c6 -18 28 -21 28 -4 0 9 -7 16 -16 16 -9 0 -14 -5 -12
-12z"/>
<path d="M5520 5775 c0 -4 8 -20 17 -38 9 -18 19 -50 22 -71 7 -49 31 -61 31
-17 0 18 11 54 25 81 21 42 23 50 9 50 -9 0 -21 -13 -27 -30 -6 -16 -14 -30
-18 -30 -4 0 -12 14 -19 30 -7 17 -19 30 -26 30 -8 0 -14 -2 -14 -5z"/>
<path d="M6020 5700 l0 -80 30 0 c43 0 80 39 80 85 0 46 -29 75 -75 75 l-35 0
0 -80z m68 48 c27 -27 9 -98 -25 -98 -9 0 -13 17 -13 55 0 56 12 69 38 43z"/>
<path d="M6153 5768 c2 -7 10 -13 17 -13 7 0 15 6 18 13 2 7 -5 12 -18 12 -13
0 -20 -5 -17 -12z"/>
<path d="M6342 5768 c6 -18 28 -21 28 -4 0 9 -7 16 -16 16 -9 0 -14 -5 -12
-12z"/>
<path d="M6720 5700 c0 -47 4 -80 10 -80 6 0 10 16 10 35 0 31 3 35 25 35 31
0 33 17 3 22 -35 5 -31 42 5 46 42 5 32 22 -13 22 l-40 0 0 -80z"/>
<path d="M7430 5770 c0 -5 9 -10 20 -10 18 0 20 -7 20 -70 0 -56 3 -70 15 -70
12 0 15 14 15 70 0 63 2 70 20 70 11 0 20 5 20 10 0 6 -25 10 -55 10 -30 0
-55 -4 -55 -10z"/>
<path d="M6419 5749 c-16 -24 -16 -42 -3 -106 3 -17 11 -23 29 -23 15 0 25 6
25 15 0 9 -6 12 -15 9 -12 -5 -15 2 -15 30 0 25 4 36 15 36 8 0 15 5 15 10 0
6 -6 10 -14 10 -8 0 -16 10 -18 22 -3 22 -3 22 -19 -3z"/>
<path d="M6946 5745 c-12 -18 -14 -30 -8 -34 6 -3 12 -24 14 -46 2 -34 6 -40
26 -40 12 0 22 5 22 10 0 6 -6 10 -12 10 -7 0 -14 15 -16 33 -2 24 1 32 12 32
9 0 16 5 16 10 0 6 -5 10 -10 10 -6 0 -14 9 -18 21 -8 21 -9 20 -26 -6z"/>
<path d="M5263 5733 c-21 -4 -23 -10 -23 -60 0 -67 22 -69 30 -2 3 24 10 44
15 44 6 0 12 -20 15 -44 3 -25 11 -46 18 -49 16 -5 17 89 0 106 -12 12 -16 13
-55 5z"/>
<path d="M5376 5725 c-24 -24 -21 -82 5 -95 11 -7 27 -9 35 -6 8 3 14 -1 14
-9 0 -9 -10 -15 -24 -15 -30 0 -42 -15 -20 -24 25 -9 33 -7 54 14 16 16 20 33
20 80 0 52 -2 60 -19 60 -11 0 -26 3 -34 6 -8 3 -22 -2 -31 -11z m49 -50 c0
-43 -29 -40 -33 3 -3 28 0 33 15 30 13 -2 18 -12 18 -33z"/>
<path d="M5656 5727 c-13 -9 -17 -23 -14 -52 2 -33 8 -41 30 -49 55 -19 91 51
48 94 -23 23 -39 25 -64 7z m52 -56 c-2 -15 -9 -26 -18 -26 -16 0 -25 37 -16
62 10 25 38 -5 34 -36z"/>
<path d="M5930 5730 c-7 -4 -19 -6 -27 -3 -10 4 -13 -8 -13 -52 0 -41 3 -56
13 -53 6 3 13 20 15 39 2 20 12 41 24 50 22 17 12 34 -12 19z"/>
<path d="M6226 5718 c-21 -30 -20 -51 3 -79 17 -21 22 -22 41 -11 19 12 21 11
18 -5 -2 -10 -12 -19 -23 -21 -11 -2 -27 -5 -35 -8 -13 -4 -13 -6 0 -14 22
-14 47 -12 64 6 22 22 23 149 1 141 -8 -4 -17 -2 -20 3 -10 17 -33 11 -49 -12z
m54 -37 c0 -34 -9 -44 -27 -30 -16 14 -17 41 -1 57 16 16 28 5 28 -27z"/>
<path d="M6513 5733 c-22 -8 -14 -23 12 -23 34 0 31 -13 -6 -27 -24 -9 -30
-17 -27 -35 3 -20 9 -23 46 -24 l42 -1 0 43 c0 57 -26 84 -67 67z m35 -75 c-6
-18 -28 -21 -28 -4 0 9 7 16 16 16 9 0 14 -5 12 -12z"/>
<path d="M7178 5733 c-27 -4 -28 -7 -28 -59 0 -41 4 -54 15 -54 11 0 15 11 15
41 0 32 4 42 20 46 18 5 30 35 13 32 -5 -1 -20 -4 -35 -6z"/>
<path d="M7252 5724 c-45 -31 -18 -108 36 -102 35 4 41 28 6 25 -15 -1 -29 4
-31 11 -3 8 7 12 32 12 33 0 36 2 29 23 -15 49 -35 57 -72 31z m46 -22 c2 -7
-6 -12 -17 -12 -21 0 -27 11 -14 24 9 9 26 2 31 -12z"/>
<path d="M7557 5722 c-33 -37 -12 -102 33 -102 27 0 50 27 50 60 0 53 -50 78
-83 42z m51 -48 c-4 -39 -32 -39 -36 0 -4 29 16 52 31 37 5 -5 7 -21 5 -37z"/>
<path d="M7803 5733 c-24 -9 -13 -23 17 -23 39 0 38 -12 -1 -27 -24 -9 -30
-17 -27 -35 2 -19 9 -23 41 -24 l37 -1 0 52 c0 60 -20 78 -67 58z m47 -72 c0
-14 -18 -23 -30 -16 -6 4 -8 11 -5 16 8 12 35 12 35 0z"/>
<path d="M4800 5693 c0 -52 13 -68 55 -69 l35 -1 0 53 c0 30 -4 54 -10 54 -5
0 -10 -15 -10 -32 0 -18 -4 -39 -9 -47 -15 -23 -31 -2 -31 40 0 28 -4 39 -15
39 -11 0 -15 -11 -15 -37z"/>
<path d="M4930 5674 c0 -73 24 -70 28 4 2 42 0 52 -12 52 -13 0 -16 -12 -16
-56z"/>
<path d="M5180 5675 c0 -30 5 -55 10 -55 6 0 10 25 10 55 0 30 -4 55 -10 55
-5 0 -10 -25 -10 -55z"/>
<path d="M5772 5678 l3 -53 38 -2 37 -1 0 54 c0 64 -17 73 -22 12 -2 -30 -8
-43 -18 -43 -10 0 -16 13 -18 43 -2 23 -8 42 -13 42 -6 0 -9 -22 -7 -52z"/>
<path d="M6160 5675 c0 -30 5 -55 10 -55 6 0 10 25 10 55 0 30 -4 55 -10 55
-5 0 -10 -25 -10 -55z"/>
<path d="M6350 5675 c0 -30 5 -55 10 -55 6 0 10 25 10 55 0 30 -4 55 -10 55
-5 0 -10 -25 -10 -55z"/>
<path d="M6822 5678 l3 -53 40 0 40 0 3 53 c2 41 0 52 -12 52 -10 0 -16 -13
-18 -42 -4 -59 -28 -63 -28 -4 0 35 -4 46 -16 46 -12 0 -14 -10 -12 -52z"/>
<path d="M7030 5688 c0 -57 8 -66 53 -65 l37 1 0 53 c0 40 -4 53 -14 53 -10 0
-16 -13 -18 -42 -4 -59 -28 -63 -28 -4 0 34 -4 46 -15 46 -11 0 -15 -11 -15
-42z"/>
<path d="M7890 5725 c0 -2 7 -23 16 -45 10 -24 14 -53 10 -70 -4 -20 -2 -30 7
-30 6 0 24 34 39 75 19 55 23 75 13 75 -7 0 -19 -15 -25 -32 l-13 -33 -10 33
c-5 17 -16 32 -23 32 -8 0 -14 -2 -14 -5z"/>
<path d="M7350 5625 c0 -19 5 -35 10 -35 6 0 10 16 10 35 0 19 -4 35 -10 35
-5 0 -10 -16 -10 -35z"/>
</g>
</svg>
